<svg xmlns="http://www.w3.org/2000/svg" width="31" height="30" viewBox="0 0 31 30" fill="none">
    <path d="M13.9865 0.48771C14.6882 -0.175696 15.795 -0.161932 16.4799 0.526719C17.1648 1.21538 17.1725 2.32228 16.5052 3.02034L16.473 3.05321L4.01695 15.4411L12.6322 24.1036C13.3279 24.8032 13.3248 25.9343 12.6252 26.6301C11.9256 27.3258 10.7945 27.3227 10.0988 26.6232L0.727709 17.2006C-0.246345 16.2212 -0.242002 14.6376 0.737409 13.6635L13.9535 0.519811L13.9865 0.48771Z" fill="#FFC795" />
    <path fill-rule="evenodd" clip-rule="evenodd" d="M18.1492 6.42649C19.1286 5.45248 20.7123 5.45687 21.6863 6.43633L29.3297 14.1226C30.3037 15.1021 30.2994 16.6858 29.3199 17.6598L21.9645 24.9741C22.1505 25.4092 22.2535 25.8882 22.2535 26.3913C22.2535 28.3843 20.6378 30 18.6448 30C16.6518 30 15.0361 28.3843 15.0361 26.3913C15.0361 24.3983 16.6517 22.7826 18.6448 22.7826C18.7905 22.7826 18.9343 22.7913 19.0755 22.8081L26.0404 15.8821L19.9086 9.7158L17.524 12.0869C18.8213 12.9191 19.6809 14.374 19.6809 16.0296C19.6809 18.6147 17.5853 20.7102 15.0003 20.7103C12.4153 20.7103 10.3197 18.6147 10.3197 16.0296C10.3197 14.3985 11.1541 12.9621 12.4194 12.1243L18.1492 6.42649ZM18.6448 25.3551C18.0725 25.3551 17.6086 25.819 17.6086 26.3913C17.6086 26.9635 18.0725 27.4275 18.6448 27.4275C19.217 27.4275 19.6809 26.9635 19.6809 26.3913C19.6809 25.8191 19.217 25.3552 18.6448 25.3551ZM15.0003 14.6362C14.9869 14.6362 14.9734 14.6364 14.96 14.6367L14.9342 14.6625L14.9109 14.639C14.183 14.6852 13.6069 15.2901 13.6069 16.0296C13.6069 16.7992 14.2308 17.4231 15.0003 17.4231C15.7699 17.4231 16.3938 16.7992 16.3938 16.0296C16.3938 15.2601 15.7699 14.6362 15.0003 14.6362Z" fill="#FE891F" />
</svg>
