<svg width="640" height="640" viewBox="0 0 640 640" fill="none" xmlns="http://www.w3.org/2000/svg">
<rect width="640" height="640" fill="black"/>
<path d="M305.414 116.916C315.234 107.633 330.723 107.825 340.307 117.462C349.891 127.099 349.999 142.589 340.662 152.358L340.21 152.818L165.902 326.172L286.462 447.395C296.199 457.185 296.154 473.014 286.365 482.75C276.575 492.486 260.746 492.443 251.01 482.654L119.872 350.795C106.242 337.09 106.302 314.928 120.008 301.297L304.953 117.366L305.414 116.916Z" fill="#FFC795"/>
<path fill-rule="evenodd" clip-rule="evenodd" d="M363.668 200.023C377.375 186.393 399.536 186.454 413.167 200.161L520.128 307.722C533.758 321.429 533.697 343.59 519.991 357.22L417.06 459.577C419.662 465.665 421.104 472.369 421.104 479.409C421.104 507.299 398.494 529.908 370.604 529.909C342.714 529.909 320.104 507.299 320.104 479.409C320.104 451.518 342.714 428.909 370.604 428.909C372.644 428.909 374.655 429.03 376.631 429.265L474.098 332.343L388.29 246.053L354.92 279.235C373.074 290.879 385.104 311.24 385.104 334.409C385.104 370.583 355.778 399.908 319.604 399.909C283.429 399.909 254.104 370.583 254.104 334.409C254.104 311.582 265.781 291.482 283.487 279.757L363.668 200.023ZM370.604 464.909C362.596 464.909 356.104 471.4 356.104 479.409C356.104 487.417 362.596 493.909 370.604 493.909C378.612 493.908 385.104 487.416 385.104 479.409C385.104 471.401 378.612 464.909 370.604 464.909ZM319.604 314.909C319.415 314.909 319.227 314.911 319.04 314.916L318.678 315.277L318.352 314.949C308.166 315.594 300.104 324.059 300.104 334.409C300.104 345.178 308.835 353.909 319.604 353.909C330.373 353.908 339.104 345.178 339.104 334.409C339.104 323.639 330.373 314.909 319.604 314.909Z" fill="#FE891F"/>
</svg>
