<svg width="2039" height="420" viewBox="0 0 2039 420" fill="none" xmlns="http://www.w3.org/2000/svg">
<path d="M196.415 7.00855C206.235 -2.27508 221.724 -2.08246 231.308 7.55445C240.892 17.1914 241 32.6813 231.662 42.45L231.211 42.9099L56.9026 216.264L177.463 337.487C187.199 347.277 187.155 363.106 177.365 372.843C167.576 382.579 151.747 382.535 142.011 372.746L10.8733 240.887C-2.75751 227.182 -2.69673 205.02 11.009 191.389L195.953 7.45777L196.415 7.00855Z" fill="#FFC795"/>
<path fill-rule="evenodd" clip-rule="evenodd" d="M254.669 90.115C268.376 76.4849 290.537 76.5463 304.167 90.2527L411.129 197.814C424.759 211.521 424.698 233.682 410.992 247.312L308.061 349.669C310.663 355.757 312.105 362.461 312.105 369.501C312.105 397.391 289.495 420.001 261.605 420.001C233.715 420.001 211.105 397.391 211.105 369.501C211.105 341.61 233.714 319.001 261.605 319.001C263.644 319.001 265.656 319.122 267.632 319.357L365.099 222.435L279.29 136.145L245.921 169.327C264.075 180.972 276.105 201.332 276.105 224.501C276.105 260.675 246.779 290.001 210.605 290.001C174.43 290.001 145.105 260.675 145.105 224.501C145.105 201.674 156.781 181.574 174.488 169.849L254.669 90.115ZM261.605 355.001C253.597 355.001 247.105 361.493 247.105 369.501C247.105 377.509 253.597 384.001 261.605 384.001C269.613 384.001 276.105 377.509 276.105 369.501C276.105 361.493 269.613 355.001 261.605 355.001ZM210.605 205.001C210.416 205.001 210.228 205.003 210.04 205.009L209.679 205.369L209.353 205.041C199.167 205.686 191.105 214.152 191.105 224.501C191.105 235.27 199.835 244.001 210.605 244.001C221.374 244.001 230.105 235.27 230.105 224.501C230.105 213.731 221.374 205.001 210.605 205.001Z" fill="#FE891F"/>
<path d="M593.238 84.0922C663.515 84.0922 707.526 131.653 707.526 210.447C707.526 288.532 664.579 336.092 595.368 336.092H520.478V84.0922H593.238ZM572.298 289.241H593.238C631.216 289.241 652.512 263.332 652.512 210.092C652.512 156.853 631.216 130.943 593.238 130.943H572.298V289.241ZM707.151 242.036C707.151 181.698 742.644 143.72 798.722 143.72C844.863 143.72 887.1 173.889 888.165 242.746V253.749H761.1C763.939 280.368 777.427 296.695 798.722 296.695C813.629 296.695 826.052 287.112 832.086 271.85L885.325 277.174C875.032 315.151 840.959 340.351 798.722 340.351C742.644 340.351 707.151 302.374 707.151 242.036ZM762.52 222.16H833.505C828.891 199.444 815.404 187.377 798.722 187.377C779.911 187.377 767.134 200.509 762.52 222.16ZM1081.94 147.979L1014.85 336.092H957.356L890.274 147.979H943.868L986.105 278.948L1027.99 147.979H1081.94ZM1074.11 336.092L1149.71 84.0922H1200.82L1276.42 336.092H1222.11L1209.34 290.661H1141.19L1128.41 336.092H1074.11ZM1152.9 249.489H1197.62L1175.26 169.63L1152.9 249.489ZM1390.68 209.027C1388.2 194.12 1377.2 187.377 1361.93 187.377C1347.74 187.377 1337.44 193.056 1338.51 203.703C1339.22 215.416 1353.77 218.965 1380.04 224.999C1418.37 233.163 1446.76 253.394 1446.76 284.272C1446.76 321.185 1415.88 340.351 1368.32 340.351C1320.76 340.351 1284.56 314.441 1281.72 274.689L1336.02 272.56C1337.8 288.177 1350.58 296.695 1368.32 296.695C1383.23 296.695 1393.52 292.791 1393.52 282.853C1393.52 272.56 1379.68 268.301 1355.19 262.267C1313.66 252.329 1285.27 234.227 1285.27 203.349C1285.27 167.146 1319.34 143.72 1365.13 143.72C1406.66 143.72 1440.02 168.21 1445.7 206.898L1390.68 209.027ZM1591.2 147.979V291.371H1647.99V336.092H1473.72V291.371H1540.8V192.701H1478.33V147.979H1591.2ZM1540.09 125.974V84.0922H1590.49V125.974H1540.09ZM1729.96 326.154C1687.72 326.154 1657.55 290.661 1657.55 239.906C1657.55 181.698 1687.01 143.72 1729.96 143.72C1754.45 143.72 1771.84 155.788 1781.78 176.019L1782.49 147.979H1831.47V306.278C1830.05 365.906 1802.36 393.591 1747.7 393.591C1702.27 393.591 1673.17 372.65 1664.65 339.996L1717.18 336.447C1722.5 348.87 1732.8 355.968 1747.7 355.968C1768.29 355.968 1780.36 341.416 1781.07 315.506V299.534C1772.55 315.151 1751.25 326.154 1729.96 326.154ZM1710.79 238.841C1710.79 270.785 1724.99 291.371 1747.7 291.371C1770.06 291.371 1783.55 270.785 1783.91 238.841C1783.91 207.253 1770.06 186.667 1747.7 186.667C1724.99 186.667 1710.79 207.253 1710.79 238.841ZM1857.71 147.979H1904.21L1905.98 177.439C1915.56 155.433 1933.31 143.72 1956.38 143.72C1994 143.72 2014.23 171.05 2014.23 215.061V336.092H1963.83V224.644C1963.83 196.605 1955.32 182.408 1937.57 182.408C1919.47 182.408 1908.11 196.605 1908.11 224.644V336.092H1857.71V147.979Z" fill="white"/>
</svg>
