<svg width="200" height="200" viewBox="0 0 200 200" fill="none" xmlns="http://www.w3.org/2000/svg">
<path d="M100 2.42236C86.8678 2.42236 73.8642 5.00894 61.7317 10.0344C49.5991 15.0599 38.5752 22.4258 29.2893 31.7117C10.5357 50.4653 0 75.9007 0 102.422C0 146.622 28.7 184.122 68.4 197.422C73.4 198.222 75 195.122 75 192.422V175.522C47.3 181.522 41.4 162.122 41.4 162.122C36.8 150.522 30.3 147.422 30.3 147.422C21.2 141.222 31 141.422 31 141.422C41 142.122 46.3 151.722 46.3 151.722C55 166.922 69.7 162.422 75.4 160.022C76.3 153.522 78.9 149.122 81.7 146.622C59.5 144.122 36.2 135.522 36.2 97.4224C36.2 86.3224 40 77.4224 46.5 70.3224C45.5 67.8224 42 57.4224 47.5 43.9224C47.5 43.9224 55.9 41.2224 75 54.1224C82.9 51.9224 91.5 50.8224 100 50.8224C108.5 50.8224 117.1 51.9224 125 54.1224C144.1 41.2224 152.5 43.9224 152.5 43.9224C158 57.4224 154.5 67.8224 153.5 70.3224C160 77.4224 163.8 86.3224 163.8 97.4224C163.8 135.622 140.4 144.022 118.1 146.522C121.7 149.622 125 155.722 125 165.022V192.422C125 195.122 126.6 198.322 131.7 197.422C171.4 184.022 200 146.622 200 102.422C200 89.2902 197.413 76.2866 192.388 64.154C187.362 52.0215 179.997 40.9975 170.711 31.7117C161.425 22.4258 150.401 15.0599 138.268 10.0344C126.136 5.00894 113.132 2.42236 100 2.42236Z" fill="white"/>
</svg>
